{
  "accessors": [
    {
      "bufferView": 2,
      "componentType": 5126,
      "count": 364,
      "max": [
        2.3668549060821533,
        15.584449768066406,
        2.366529941558838
      ],
      "min": [
        -2.3668549060821533,
        -1.9999999949504854e-06,
        -2.366529941558838
      ],
      "type": "VEC3"
    },
    {
      "bufferView": 2,
      "byteOffset": 4368,
      "componentType": 5126,
      "count": 364,
      "max": [
        1.0,
        1.0,
        1.0
      ],
      "min": [
        -1.0,
        -1.0,
        -1.0
      ],
      "type": "VEC3"
    },
    {
      "bufferView": 3,
      "componentType": 5126,
      "count": 364,
      "max": [
        0.9999439120292664,
        0.716451108455658,
        0.9989987015724182,
        1.0
      ],
      "min": [
        -0.999991238117218,
        -0.9999498128890991,
        -0.9999992251396179,
        1.0
      ],
      "type": "VEC4"
    },
    {
      "bufferView": 1,
      "componentType": 5126,
      "count": 364,
      "max": [
        0.8951770067214966,
        0.9915609955787659
      ],
      "min": [
        0.08217799663543701,
        0.03474799916148186
      ],
      "type": "VEC2"
    },
    {
      "bufferView": 0,
      "componentType": 5125,
      "count": 1800,
      "type": "SCALAR"
    }
  ],
  "asset": {
    "extras": {
      "author": "Pricey1600 (https://sketchfab.com/Pricey1600)",
      "license": "CC-BY-4.0 (http://creativecommons.org/licenses/by/4.0/)",
      "source": "https://sketchfab.com/3d-models/bowling-pin-784499acc8a646318e11543a46132127",
      "title": "Bowling Pin"
    },
    "generator": "Sketchfab-12.68.0",
    "version": "2.0"
  },
  "bufferViews": [
    {
      "buffer": 0,
      "byteLength": 7200,
      "name": "floatBufferViews",
      "target": 34963
    },
    {
      "buffer": 0,
      "byteLength": 2912,
      "byteOffset": 7200,
      "byteStride": 8,
      "name": "floatBufferViews",
      "target": 34962
    },
    {
      "buffer": 0,
      "byteLength": 8736,
      "byteOffset": 10112,
      "byteStride": 12,
      "name": "floatBufferViews",
      "target": 34962
    },
    {
      "buffer": 0,
      "byteLength": 5824,
      "byteOffset": 18848,
      "byteStride": 16,
      "name": "floatBufferViews",
      "target": 34962
    }
  ],
  "buffers": [
    {
      "byteLength": 24672,
      "uri": "scene.bin"
    }
  ],
  "images": [
    {
      "uri": "textures/lambert1_baseColor.jpeg"
    },
    {
      "uri": "textures/lambert1_metallicRoughness.png"
    },
    {
      "uri": "textures/lambert1_normal.png"
    }
  ],
  "materials": [
    {
      "doubleSided": true,
      "name": "lambert1",
      "normalTexture": {
        "index": 2
      },
      "occlusionTexture": {
        "index": 1
      },
      "pbrMetallicRoughness": {
        "baseColorTexture": {
          "index": 0
        },
        "metallicRoughnessTexture": {
          "index": 1
        }
      }
    }
  ],
  "meshes": [
    {
      "name": "defaultMaterial",
      "primitives": [
        {
          "attributes": {
            "NORMAL": 1,
            "POSITION": 0,
            "TANGENT": 2,
            "TEXCOORD_0": 3
          },
          "indices": 4,
          "material": 0,
          "mode": 4
        }
      ]
    }
  ],
  "nodes": [
    {
      "children": [
        1
      ],
      "matrix": [
        0.009709490082355887,
        1.8732111888861642e-18,
        -0.008436193212253973,
        0.0,
        -0.008436193212253973,
        2.1559398893602227e-18,
        -0.009709490082355887,
        0.0,
        0.0,
        0.012862485833466053,
        2.8560455852457818e-18,
        0.0,
        8.02389422460692e-06,
        -5.3777618802542764e-08,
        4.18435274696094e-06,
        1.0
      ],
      "name": "Sketchfab_model"
    },
    {
      "children": [
        2
      ],
      "matrix": [
        1.0,
        0.0,
        0.0,
        0.0,
        0.0,
        -4.371139006309477e-08,
        0.999999999999999,
        0.0,
        0.0,
        -0.999999999999999,
        -4.371139006309477e-08,
        0.0,
        0.0,
        0.0,
        0.0,
        1.0
      ],
      "name": "Collada visual scene group"
    },
    {
      "children": [
        3
      ],
      "matrix": [
        2.46337,
        0.0,
        0.0,
        0.0,
        0.0,
        2.46337,
        0.0,
        0.0,
        0.0,
        0.0,
        2.46337,
        0.0,
        0.0,
        -18.87981,
        0.0,
        1.0
      ],
      "name": "BowlingPin_LP"
    },
    {
      "mesh": 0,
      "name": "defaultMaterial"
    }
  ],
  "samplers": [
    {
      "magFilter": 9729,
      "minFilter": 9987,
      "wrapS": 10497,
      "wrapT": 10497
    }
  ],
  "scene": 0,
  "scenes": [
    {
      "name": "Sketchfab_Scene",
      "nodes": [
        0
      ]
    }
  ],
  "textures": [
    {
      "sampler": 0,
      "source": 0
    },
    {
      "sampler": 0,
      "source": 1
    },
    {
      "sampler": 0,
      "source": 2
    }
  ]
}
